# xmcd
#
# Track frame offsets:
#  150
#  15957
#  26987
#  43502
#  58037
#  72095
#  83027
#  98560
#  111907
#  122937
#  142382
#  158290
#  174002
#  186640
#  206632
#
# Disc length: 3003 seconds
#
# Revision: 0
# Processed by: cddbd v1.5.2PL0 Copyright (c) Steve Scherf et al.
# Submitted via: Collectorz.com_Music_Collector 6.11
#
DISCID=c90bb90f
DTITLE=Various Artist - NfS Country Singles Volume 14
DYEAR=1900
DGENRE=Country
TTITLE0=Allan Caswell - Josie's Farm
TTITLE1=Beccy Cole - Sugarfoot rag
TTITLE2=Graeme Connors - On My road
TTITLE3=Micahel Fix - Fingerpainting
TTITLE4=Slim Dusty - Charleville
TTITLE5=Paul Pixie Jenkins - Kindee
TTITLE6=Tanya Tucker - Soon
TTITLE7=Mark Chesnutt - It Sure Is Monday
TTITLE8=George Jones - High Tech Redneck
TTITLE9=Reba Mcentire and Linda Davis - Does He Love You
TTITLE10=Travis Tritt - Take It Easy
TTITLE11=Alan Jackson - (Who Says) You can't have It All
TTITLE12=Jim Varney with Ricky Skaggs - Hot Rod Lincoln
TTITLE13=John Michael Montgomery - I Swear
TTITLE14=Michael Martin Murphy duet with Marty Robbins - Big Iron
EXTD=
EXTT0=
EXTT1=
EXTT2=
EXTT3=
EXTT4=
EXTT5=
EXTT6=
EXTT7=
EXTT8=
EXTT9=
EXTT10=
EXTT11=
EXTT12=
EXTT13=
EXTT14=
PLAYORDER=
